<?xml version="1.0" standalone="no"?>
<!DOCTYPE svg PUBLIC "-//W3C//DTD SVG 20010904//EN"
 "http://www.w3.org/TR/2001/REC-SVG-20010904/DTD/svg10.dtd">
<svg version="1.0" xmlns="http://www.w3.org/2000/svg"
 width="1024.000000pt" height="1024.000000pt" viewBox="0 0 1024.000000 1024.000000"
 preserveAspectRatio="xMidYMid meet">
<metadata>
Created by potrace 1.14, written by Peter Selinger 2001-2017
</metadata>
<g transform="translate(0.000000,1024.000000) scale(0.100000,-0.100000)"
fill="#000000" stroke="none">
<path d="M0 5120 l0 -5120 5120 0 5120 0 0 5120 0 5120 -5120 0 -5120 0 0
-5120z m5535 3166 c100 -15 319 -57 385 -75 116 -31 334 -102 395 -130 11 -5
43 -19 70 -31 469 -208 882 -523 1195 -910 77 -96 240 -322 240 -333 0 -4 16
-31 35 -61 45 -71 154 -288 200 -401 164 -399 236 -769 236 -1216 1 -523 -98
-953 -322 -1409 -316 -644 -839 -1162 -1483 -1470 -139 -67 -359 -151 -471
-180 -16 -5 -55 -15 -85 -23 -490 -135 -1104 -137 -1605 -7 -155 40 -356 108
-459 155 -166 75 -237 110 -331 165 -806 464 -1363 1237 -1543 2140 -6 30 -16
78 -21 105 -49 256 -50 782 -1 1035 4 25 13 72 20 105 114 588 399 1140 813
1571 320 334 618 543 1057 742 63 28 313 117 375 133 17 4 55 14 85 22 92 25
309 65 420 77 58 6 114 13 125 15 55 10 579 -5 670 -19z"/>
<path d="M4935 7810 c-433 -45 -714 -123 -1044 -291 -609 -311 -1078 -847
-1311 -1499 -77 -214 -127 -466 -150 -760 -12 -146 4 -418 34 -588 98 -552
349 -1039 735 -1432 552 -559 1284 -843 2067 -799 439 24 854 151 1224 372
658 394 1117 1047 1264 1797 36 188 41 248 41 525 -1 305 -12 399 -76 655
-221 883 -891 1601 -1769 1893 -297 99 -742 154 -1015 127z m505 -331 c58 -10
91 -23 147 -57 113 -70 113 -72 -8 -72 -304 -1 -651 -77 -953 -210 l-111 -49
-28 32 c-38 43 -157 221 -157 235 0 29 342 111 555 133 111 11 464 3 555 -12z
m-1340 -229 c0 -16 96 -174 141 -230 l42 -53 -24 -19 c-13 -11 -69 -52 -124
-92 -56 -42 -159 -134 -233 -210 -74 -75 -136 -136 -138 -136 -13 0 -234 356
-234 378 0 27 270 225 426 312 104 57 144 71 144 50z m1638 -156 c28 -4 52
-11 52 -16 0 -5 -26 -42 -58 -81 -81 -99 -244 -321 -327 -444 -38 -57 -73
-103 -78 -103 -15 0 -137 70 -252 145 -180 118 -371 275 -362 298 10 26 300
123 484 162 148 32 429 52 541 39z m378 -146 c83 -113 149 -232 225 -403 27
-62 109 -339 109 -371 0 -8 -156 -4 -235 7 -134 18 -256 39 -345 61 -96 23
-257 73 -280 88 -12 7 -2 27 53 108 125 186 414 562 431 562 2 0 21 -24 42
-52z m377 -22 c18 -7 50 -21 72 -31 91 -39 262 -128 284 -148 105 -98 368
-476 345 -496 -22 -19 -410 -86 -456 -79 -18 3 -26 24 -59 156 -54 214 -133
417 -217 560 -34 57 -28 64 31 38z m-1945 -247 c150 -142 356 -292 554 -405
49 -27 88 -52 88 -56 0 -3 -20 -40 -44 -80 -54 -93 -148 -268 -223 -421 l-58
-117 -50 26 c-256 135 -558 360 -764 568 l-114 115 72 80 c112 124 225 226
334 302 55 38 105 69 110 69 5 0 48 -36 95 -81z m-1181 -36 c31 -55 141 -221
201 -303 l39 -55 -58 -97 c-71 -117 -177 -327 -219 -434 -17 -44 -35 -83 -39
-87 -18 -19 -331 409 -331 452 0 23 107 218 172 316 67 100 189 255 200 255 4
0 19 -21 35 -47z m2139 -559 c271 -102 604 -167 909 -177 l70 -2 8 -60 c8 -59
2 -560 -7 -600 -2 -11 -5 -24 -5 -29 -2 -22 -473 9 -651 43 -203 39 -443 106
-555 155 -16 7 -57 23 -90 36 -33 13 -65 28 -72 34 -8 8 4 42 52 138 97 195
259 488 269 488 2 0 35 -12 72 -26z m-1598 -121 c262 -240 460 -384 750 -547
56 -31 102 -59 102 -61 0 -3 -16 -44 -36 -92 -20 -49 -40 -99 -45 -113 -4 -14
-31 -90 -59 -170 -29 -80 -63 -180 -77 -222 -13 -43 -28 -78 -33 -78 -21 0
-256 136 -385 223 -199 134 -418 312 -565 461 l-75 77 29 82 c16 45 40 105 52
134 13 28 24 54 24 57 0 11 110 229 148 294 20 34 40 62 45 62 4 0 61 -48 125
-107z m3431 -10 c50 -138 89 -283 116 -433 24 -139 26 -134 -57 -162 -86 -29
-126 -41 -231 -68 -120 -30 -390 -72 -412 -64 -6 3 -8 46 -3 122 10 174 11
323 3 450 -5 66 -4 112 2 112 75 0 405 56 493 84 25 8 50 15 56 15 6 1 21 -25
33 -56z m-4472 -165 c12 -25 180 -245 269 -350 l56 -68 -31 -122 c-36 -146
-64 -283 -86 -433 -9 -60 -18 -112 -21 -114 -9 -9 -226 241 -286 329 l-30 45
6 161 c6 155 33 348 70 486 25 95 34 106 53 66z m2203 -569 c327 -150 775
-248 1209 -266 l163 -6 -6 -55 c-13 -114 -98 -498 -125 -566 l-12 -29 -196 7
c-471 17 -833 78 -1178 196 -136 47 -165 61 -165 79 0 19 119 367 175 511 20
52 41 107 47 123 12 32 28 33 88 6z m-1629 -95 c40 -43 217 -194 329 -280 98
-75 326 -234 335 -234 3 0 28 -15 57 -34 29 -18 101 -59 160 -90 60 -32 110
-61 112 -65 3 -4 -6 -45 -20 -92 -28 -98 -100 -395 -110 -457 -4 -23 -10 -45
-15 -48 -11 -7 -261 119 -389 196 -158 95 -320 208 -467 325 l-133 106 0 54
c0 138 86 645 109 645 4 0 18 -12 32 -26z m4049 -28 c0 -102 -29 -347 -56
-471 -30 -137 -25 -129 -117 -158 -207 -66 -520 -130 -682 -138 -58 -4 -57 -7
-25 116 24 90 77 352 89 440 5 37 11 69 13 71 2 2 61 10 132 19 208 26 423 70
576 119 58 19 70 19 70 2z m-4458 -919 c1 -97 -1 -177 -5 -177 -26 0 -192 419
-212 535 l-8 40 111 -110 110 -110 4 -178z m1720 112 c92 -37 257 -89 377
-119 207 -52 300 -69 581 -105 74 -10 328 -24 423 -25 97 0 98 -1 73 -67 -8
-21 -29 -76 -46 -123 -40 -107 -74 -183 -125 -285 l-40 -80 -145 3 c-191 4
-479 33 -635 62 -207 40 -322 65 -400 86 -129 36 -248 73 -263 83 -11 7 -10
27 8 112 25 122 108 457 116 470 8 13 17 11 76 -12z m2477 -241 c-70 -138
-214 -356 -286 -435 -45 -50 -52 -53 -126 -68 -104 -20 -398 -55 -471 -55 -43
0 -57 3 -53 13 53 118 128 305 163 405 24 69 47 129 51 133 5 4 85 18 178 29
205 26 362 55 530 98 39 9 71 14 73 10 2 -4 -25 -62 -59 -130z m-3846 10 c88
-67 316 -220 387 -260 25 -14 74 -42 110 -63 36 -20 121 -64 190 -97 69 -33
135 -64 148 -70 26 -13 27 -23 8 -160 -17 -124 -34 -275 -42 -380 -4 -52 -10
-78 -18 -78 -23 0 -248 120 -345 183 -175 115 -450 355 -465 404 -31 107 -80
583 -60 583 3 0 42 -28 87 -62z m1224 -632 c327 -103 873 -194 1171 -196 37 0
62 -4 62 -11 0 -27 -166 -242 -277 -359 l-78 -83 -130 -13 c-277 -28 -563 -7
-823 59 l-87 23 1 124 c1 121 14 266 35 400 14 85 16 90 31 86 7 -3 50 -16 95
-30z m1943 -189 c0 -9 -163 -119 -250 -169 -136 -78 -346 -175 -357 -165 -2 2
30 53 72 112 41 59 87 129 101 156 l26 47 107 7 c58 3 120 7 136 8 67 5 165 7
165 4z"/>
</g>
</svg>
